# xmcd
# 
# Track frame offsets:
#     150
#     12615
#     28712
#     42250
#     54476
#     72623
#     89422
#     103399
#     120413
#     131900
#     142805
#     155236
#     170504
# 
# Disc length: 2757
# 
# Revision: 0
# Processed by: cddbd v1.5.2PL0 Copyright (c) Steve Scherf et al.
# Submitted via: fre:ac v1.0.31
# 
DISCID=c00ac30d
DTITLE=Alyona - From Russia With Love
DYEAR=2008
DGENRE=
TTITLE0=Ya chto to znau
TTITLE1=Lost My Mind
TTITLE2=Sister No.8
TTITLE3=From Russia With Love
TTITLE4=2000 Miles
TTITLE5=Ritmo Sin Fin
TTITLE6=Digits
TTITLE7=Money
TTITLE8=Someones Bride
TTITLE9=Yours
TTITLE10=Why Dont He Call
TTITLE11=Her Eyes
TTITLE12=Eternity
EXTD=
EXTT0=
EXTT1=
EXTT2=
EXTT3=
EXTT4=
EXTT5=
EXTT6=
EXTT7=
EXTT8=
EXTT9=
EXTT10=
EXTT11=
EXTT12=
PLAYORDER=
